<svg xmlns="http://www.w3.org/2000/svg" viewBox="0 0 256 256" role="img" aria-labelledby="title desc">
  <title id="title">Greetings Master</title>
  <desc id="desc">Two speech bubbles with a mastery crown.</desc>
  <circle cx="128" cy="128" r="112" fill="#F7C948"/>
  <circle cx="128" cy="128" r="98" fill="#F6FAFD" stroke="#075A9A" stroke-width="10"/>
  <path d="M57 96h72c17 0 31 12 31 28s-14 28-31 28H99l-29 23 7-23H57c-17 0-31-12-31-28s14-28 31-28z" fill="#FFFFFF" stroke="#075A9A" stroke-width="8" stroke-linejoin="round"/>
  <path d="M127 122h72c17 0 31 12 31 28s-14 28-31 28h-19l7 23-29-23h-31c-17 0-31-12-31-28s14-28 31-28z" fill="#59B7E8" stroke="#075A9A" stroke-width="8" stroke-linejoin="round"/>
  <path d="M78 125h55M130 151h55" stroke="#087CC1" stroke-width="8" stroke-linecap="round"/>
  <path d="M78 72l18-31 24 25 28-34 28 34 24-25 18 31-14 31H92z" fill="#F7C948" stroke="#C96B35" stroke-width="8" stroke-linejoin="round"/>
  <circle cx="120" cy="76" r="6" fill="#C96B35"/>
  <circle cx="148" cy="70" r="6" fill="#C96B35"/>
  <circle cx="176" cy="76" r="6" fill="#C96B35"/>
</svg>
